<svg xmlns="http://www.w3.org/2000/svg" xmlns:xlink="http://www.w3.org/1999/xlink" width="85.927" height="75.364" viewBox="0 0 85.927 75.364">
  <defs>
    <clipPath id="clip-path">
      <path id="Path_35" data-name="Path 35" d="M91.8-67.9H65.364V-81.982h40.791V-6.649H91.8Z" transform="translate(-65.364 81.982)" fill="none" clip-rule="evenodd"/>
    </clipPath>
    <clipPath id="clip-path-2">
      <path id="Path_34" data-name="Path 34" d="M-89,1074.552H533.135V-187H-89Z" transform="translate(89 187)" fill="none"/>
    </clipPath>
    <clipPath id="clip-path-3">
      <path id="Path_38" data-name="Path 38" d="M105.861-57.3v42.917H91.47V-71.369h40.8V-57.3Z" transform="translate(-91.47 71.369)" fill="#fff" clip-rule="evenodd"/>
    </clipPath>
    <clipPath id="clip-path-4">
      <path id="Path_37" data-name="Path 37" d="M-89,1074.552H533.135V-187H-89Z" transform="translate(89 187)" fill="#fff"/>
    </clipPath>
    <clipPath id="clip-path-5">
      <path id="Path_23" data-name="Path 23" d="M91.467-67.943h40.817V-82H91.467Z" transform="translate(-91.467 82)" fill="#fff"/>
    </clipPath>
    <clipPath id="clip-path-6">
      <path id="Path_31" data-name="Path 31" d="M65.366-57.292H87.511V-71.377H65.366Z" transform="translate(-65.366 71.377)" fill="#fff"/>
    </clipPath>
  </defs>
  <g id="Group_14207" data-name="Group 14207" transform="translate(647.692 -594.436)">
    <g id="Group_25" data-name="Group 25" transform="translate(-647.692 594.466)" clip-path="url(#clip-path)">
      <g id="Group_24" data-name="Group 24" transform="translate(-266.765 -181.486)" clip-path="url(#clip-path-2)">
        <path id="Path_33" data-name="Path 33" d="M64.364-82.982h44.248v78.79H64.364Z" transform="translate(200.672 262.741)" fill="#fff"/>
      </g>
    </g>
    <g id="Group_27" data-name="Group 27" transform="translate(-602.576 612.807)" clip-path="url(#clip-path-3)">
      <g id="Group_26" data-name="Group 26" transform="translate(-311.88 -199.827)" clip-path="url(#clip-path-4)">
        <path id="Path_36" data-name="Path 36" d="M90.47-72.369h44.26v60.439H90.47Z" transform="translate(219.682 270.469)" fill="#fff"/>
      </g>
    </g>
    <g id="Group_28" data-name="Group 28" transform="translate(-647.689 594.436)" style="mix-blend-mode: normal;isolation: isolate">
      <g id="Group_25-2" data-name="Group 25" transform="translate(0 0)">
        <g id="Group_15" data-name="Group 15" transform="translate(45.107)" clip-path="url(#clip-path-5)">
          <path id="Path_22" data-name="Path 22" d="M90.467-83h44.274v17.513H90.467Z" transform="translate(-92.195 81.272)" fill="#fff"/>
        </g>
        <g id="Group_20" data-name="Group 20" transform="translate(0 18.358)" clip-path="url(#clip-path-6)">
          <path id="Path_30" data-name="Path 30" d="M64.366-72.377h25.6v17.541h-25.6Z" transform="translate(-66.094 70.649)" fill="#fff"/>
        </g>
      </g>
    </g>
  </g>
</svg>
